<?xml version="1.0" encoding="utf-8"?>
<!-- Generator: Adobe Illustrator 25.4.0, SVG Export Plug-In . SVG Version: 6.00 Build 0)  -->
<svg version="1.1" id="Layer_1" xmlns="http://www.w3.org/2000/svg" xmlns:xlink="http://www.w3.org/1999/xlink" x="0px" y="0px"
	 viewBox="0 0 566.9291382 340.1574707" style="enable-background:new 0 0 566.9291382 340.1574707;" xml:space="preserve">
<style type="text/css">
	.st0{fill:#EE0026;}
</style>
<g>
	<path d="M11.5960217,327.8886719h22.434782v11.0921631H0v-58.820343h11.5960217V327.8886719z"/>
	<path d="M61.6004372,280.1604919h11.5960197v58.820343H61.6004372V280.1604919z"/>
	<path d="M101.1839981,325.6198425l9.9155197-5.7972717c2.2688217,5.966217,6.8064575,8.9908142,13.5299301,8.9908142
		c6.4700546,0,9.4101944-2.6052246,9.4101944-6.2181396c0-2.1013489-0.923233-3.6973877-2.7726746-4.7895508
		c-1.8479614-1.1766663-5.1259613-2.4377747-9.9155273-3.7818604c-5.2934189-1.5960388-8.4869537-2.8571472-12.1843414-5.4623718
		c-3.6129227-2.6882019-5.5453415-6.7219849-5.5453415-12.0998535c0-5.2934265,1.8479538-9.5791321,5.6298065-12.6882019
		c3.7818604-3.1935425,8.4024887-4.7895813,13.6959076-4.7895813c9.4961319,0,16.9753952,4.874054,21.0076981,13.1920471
		l-9.7465973,5.6298218c-2.3532867-5.0415039-6.1351471-7.5622253-11.2611008-7.5622253
		c-4.789566,0-7.7296982,2.4377441-7.7296982,5.8817444c0,1.8494263,0.7557831,3.3624573,2.2688217,4.5376282
		c1.5960312,1.0936584,4.5376358,2.3532715,8.9063339,3.6973877l4.033783,1.3455811
		c0.9247284,0.2519226,2.1843567,0.7557678,3.7818604,1.4285583c1.5960388,0.586853,2.8571472,1.1751709,3.6973877,1.7634888
		c1.7634888,1.0921936,4.4531708,3.1935425,5.5453491,5.2104492c1.2611084,2.0168762,2.1843567,4.9570007,2.1843567,8.3179932
		c0,5.4623718-2.0168915,9.7480774-5.966217,12.9416199c-3.9493103,3.1920471-9.0752716,4.7895508-15.3763962,4.7895508
		C112.6125641,340.1574707,104.4620056,334.6106567,101.1839981,325.6198425z"/>
	<path d="M211.0194397,280.1604919v11.0921631h-15.8817291v47.7281799H183.541687V291.252655h-15.7972717v-11.0921631H211.0194397z"
		/>
	<path d="M250.1021118,327.8886719h24.7880554v11.0921631h-36.384079v-58.820343h35.9647064v11.0921631h-24.3686829v12.5192566
		h22.267334v10.9247131h-22.267334V327.8886719z"/>
	<path d="M338.0881348,280.1604919h11.5960083v58.820343h-8.8218689l-25.2089233-35.9647217v35.9647217H304.057312v-58.820343
		h8.8233643l25.2074585,35.8802185V280.1604919z"/>
	<path d="M422.0447998,338.980835l-5.4623413-14.4531555h-27.8971558l-5.4623413,14.4531555h-6.2181396l22.6037292-58.820343
		h6.0506592l22.6037292,58.820343H422.0447998z M390.7851868,318.9823303h23.6973877l-11.8494263-31.5115356
		L390.7851868,318.9823303z"/>
	<path d="M477.8494568,280.1604919c5.2934265,0,9.6636047,1.7649536,13.1920471,5.293396
		c3.5299377,3.5299377,5.2948914,7.8986511,5.2948914,13.1935425c0,5.2934265-1.7649536,9.6621094-5.2948914,13.1920471
		c-3.5284424,3.5284424-7.8986206,5.2934265-13.1920471,5.2934265h-15.125946v21.8479309h-5.8817444v-58.820343H477.8494568z
		 M477.8494568,311.5875549c3.612915,0,6.6390076-1.1766357,8.9908142-3.612915
		c2.4377441-2.4377747,3.6144104-5.5468445,3.6144104-9.3272095c0-3.7818604-1.1766663-6.8064575-3.6144104-9.2442322
		c-2.3518066-2.4362488-5.3778992-3.6973877-8.9908142-3.6973877h-15.125946v25.8817444H477.8494568z"/>
	<path d="M548.4421997,280.1604919c5.293396,0,9.6635742,1.7649536,13.1920166,5.293396
		c3.5299683,3.5299377,5.2949219,7.8986511,5.2949219,13.1935425c0,5.2934265-1.7649536,9.6621094-5.2949219,13.1920471
		c-3.5284424,3.5284424-7.8986206,5.2934265-13.1920166,5.2934265h-15.1259766v21.8479309h-5.8817139v-58.820343H548.4421997z
		 M548.4421997,311.5875549c3.612915,0,6.6389771-1.1766357,8.9907837-3.612915
		c2.4377441-2.4377747,3.6144409-5.5468445,3.6144409-9.3272095c0-3.7818604-1.1766968-6.8064575-3.6144409-9.2442322
		c-2.3518066-2.4362488-5.3778687-3.6973877-8.9907837-3.6973877h-15.1259766v25.8817444H548.4421997z"/>
</g>
<g>
	<path class="st0" d="M333.444397,112.0589752c0,34.6525574-15.0093384,66.1516113-39.3963623,89.3405151l24.786438,22.7010193
		c30.7227173-29.0080261,49.6694641-68.5386353,49.6694641-112.0415344S349.5571899,29.0078163,318.8344727,0l-24.786438,22.7010288
		C318.4350586,45.8899269,333.444397,77.4064255,333.444397,112.0589752z"/>
	<path class="st0" d="M263.3447876,112.0589752c0,16.9516602-7.1521606,32.4050446-18.8519897,43.9558868l24.7687988,22.6835938
		c18.0522461-17.387207,29.12323-40.8547058,29.12323-66.6394806c0-25.8022079-11.0709839-49.2871475-29.12323-66.6569214
		l-24.787384,22.7010307C256.192627,79.6364975,263.3447876,95.1073227,263.3447876,112.0589752z"/>
	<path class="st0" d="M236.1496582,109.6117783c0-0.0068893,0.0010986-0.0132294,0.0010986-0.0201263
		c0-5.7856674-4.6907501-10.4758606-10.4766846-10.4758606c-3.4356232,0-6.4758301,1.6618347-8.3866425,4.2170334
		c-1.9097137-2.5551987-4.9499359-4.2170334-8.3855438-4.2170334c-5.7859497,0-10.4766846,4.6901932-10.4766846,10.4758606
		c0,0.006897,0.0010986,0.013237,0.0010986,0.0201263c0,0.0278549,0.0038605,0.0548706,0.0044098,0.0828629
		c-0.0005493,0.0319824-0.0055084,0.0628662-0.0055084,0.094986c0,0.0060654,0.0010986,0.0119934,0.0010986,0.0181961
		c0.0010986,0.5910339,0.0694885,1.1669006,0.1819763,1.7282867c0.0066223,0.033638,0.0104828,0.0681076,0.0176544,0.1017456
		c0.0220642,0.1034012,0.0556946,0.2026596,0.0816193,0.3045425c0.0237122,0.0938873,0.0446625,0.1890182,0.068924,0.282486
		h0.0066223c0.0998077,0.3441162,0.2134094,0.6835403,0.3518372,1.0122147
		c0.0121307,0.0295029,0.0225983,0.0591431,0.0352936,0.0880966c0.2266541,0.5218201,0.5023804,1.018959,0.8211212,1.4910126
		c0.0077209,0.0115814,0.0148926,0.0228882,0.0231628,0.0341949c0.328125,0.4823914,0.7003632,0.9350052,1.1139526,1.354805
		l0.0082703,0.0186081l0.1224365,0.113327c-0.0231628-0.0228882-0.0452271-0.0460434-0.0683899-0.0692062
		c0.1808777,0.1800537,0.3678284,0.3543091,0.5625,0.5214081l15.532486,14.2471695h0.0044098l15.5325012-14.2471695
		c0.1952209-0.167099,0.3816071-0.3413544,0.5619354-0.5214081c-0.022049,0.0231628-0.0446625,0.0463181-0.0678253,0.0692062
		l0.1224213-0.113327l0.0082703-0.0186081c0.4136047-0.4197998,0.7863922-0.8724136,1.1139526-1.354805
		c0.0082855-0.0113068,0.0148926-0.0226135,0.0231628-0.0341949c0.3176422-0.4720535,0.5944824-0.9691925,0.8211365-1.4910126
		c0.0121307-0.0289536,0.0226135-0.0585938,0.0352936-0.0880966c0.1384125-0.3286743,0.2520142-0.6680984,0.3523865-1.0122147
		h0.0060577c0.024826-0.0931931,0.0452271-0.187912,0.0689392-0.2812424
		c0.0259094-0.1024323,0.0595551-0.2021103,0.0816193-0.3057861c0.0077209-0.033638,0.0104675-0.0681076,0.0165405-0.1017456
		c0.1136017-0.5613861,0.181427-1.1372528,0.1830902-1.7282867c0-0.0062027,0.0010986-0.0121307,0.0010986-0.0181961
		c0-0.0323944-0.0049591-0.0636902-0.0055237-0.0959549C236.1457977,109.6660995,236.1496582,109.6393509,236.1496582,109.6117783z"
		/>
</g>
</svg>
